<svg width="2252" height="557" viewBox="0 0 2252 557" fill="none" xmlns="http://www.w3.org/2000/svg">
<path d="M136.945 414.943H193.455V426.359H150.281V448.624H188.935V459.926H150.281V482.643H194.812V494.058H136.945V414.943ZM256.323 460.152C256.323 455.405 255.08 451.713 252.594 449.076C250.107 446.363 246.641 445.007 242.196 445.007C236.997 445.158 232.89 447.079 229.877 450.771C226.938 454.463 225.469 459.022 225.469 464.447H221.852C221.852 457.063 222.869 451.11 224.904 446.589C227.013 442.069 229.952 438.791 233.719 436.757C237.562 434.647 242.083 433.592 247.282 433.592C251.878 433.592 255.796 434.534 259.036 436.418C262.351 438.301 264.875 440.976 266.608 444.442C268.417 447.833 269.321 451.939 269.321 456.761V494.058H256.323V460.152ZM300.063 460.152C300.063 455.405 298.782 451.713 296.22 449.076C293.734 446.363 290.268 445.007 285.822 445.007C280.698 445.158 276.667 447.079 273.729 450.771C270.79 454.463 269.321 459.022 269.321 464.447H265.591C265.591 457.063 266.608 451.11 268.643 446.589C270.753 442.069 273.691 438.791 277.458 436.757C281.301 434.647 285.822 433.592 291.021 433.592C295.617 433.592 299.535 434.534 302.775 436.418C306.09 438.301 308.615 440.976 310.348 444.442C312.156 447.833 313.06 451.939 313.06 456.761V494.058H300.063V460.152ZM212.584 434.044H225.469V494.058H212.584V434.044ZM367.307 433.592C373.033 433.592 378.044 434.873 382.339 437.435C386.633 439.997 389.986 443.576 392.397 448.172C394.809 452.768 396.014 458.118 396.014 464.221C396.014 470.173 394.809 475.448 392.397 480.044C390.062 484.565 386.746 488.106 382.452 490.668C378.232 493.23 373.259 494.51 367.533 494.51C362.032 494.51 357.323 493.305 353.405 490.894C349.562 488.483 346.624 485.017 344.59 480.496C342.555 475.9 341.538 470.475 341.538 464.221C341.538 457.741 342.555 452.24 344.59 447.72C346.624 443.123 349.562 439.62 353.405 437.209C357.323 434.798 361.957 433.592 367.307 433.592ZM364.594 443.877C361.053 443.877 357.888 444.743 355.1 446.476C352.313 448.209 350.128 450.583 348.545 453.597C347.038 456.535 346.285 459.964 346.285 463.882C346.285 467.8 347.038 471.303 348.545 474.393C350.128 477.407 352.313 479.78 355.1 481.513C357.888 483.171 361.053 483.999 364.594 483.999C368.211 483.999 371.376 483.133 374.088 481.4C376.876 479.667 379.023 477.294 380.53 474.28C382.113 471.266 382.904 467.8 382.904 463.882C382.904 460.039 382.113 456.611 380.53 453.597C379.023 450.583 376.876 448.209 374.088 446.476C371.376 444.743 368.211 443.877 364.594 443.877ZM333.287 434.044H346.285V515.984H333.287V434.044ZM437.571 433.592C443.749 433.592 449.174 434.873 453.846 437.435C458.593 439.997 462.285 443.576 464.922 448.172C467.559 452.693 468.878 457.967 468.878 463.995C468.878 470.023 467.559 475.335 464.922 479.931C462.285 484.527 458.593 488.106 453.846 490.668C449.174 493.23 443.749 494.51 437.571 494.51C431.392 494.51 425.929 493.23 421.183 490.668C416.436 488.106 412.744 484.527 410.106 479.931C407.469 475.335 406.151 470.023 406.151 463.995C406.151 457.967 407.469 452.693 410.106 448.172C412.744 443.576 416.436 439.997 421.183 437.435C425.929 434.873 431.392 433.592 437.571 433.592ZM437.571 444.103C433.954 444.103 430.752 444.969 427.964 446.702C425.176 448.36 422.991 450.696 421.409 453.71C419.902 456.724 419.148 460.19 419.148 464.108C419.148 468.101 419.902 471.605 421.409 474.619C422.991 477.633 425.176 480.006 427.964 481.739C430.752 483.397 433.954 484.226 437.571 484.226C441.187 484.226 444.352 483.397 447.064 481.739C449.852 480.006 452 477.633 453.507 474.619C455.089 471.605 455.88 468.101 455.88 464.108C455.88 460.19 455.089 456.724 453.507 453.71C452 450.696 449.852 448.36 447.064 446.702C444.352 444.969 441.187 444.103 437.571 444.103ZM472.999 434.044H486.336L501.933 482.078L517.078 434.044H530.527L545.785 482.078L561.156 434.044H574.379L552.453 494.058H539.004L523.746 448.624L508.488 494.058H495.151L472.999 434.044ZM625.018 459.7C624.867 456.309 624.076 453.446 622.645 451.11C621.288 448.699 619.367 446.853 616.881 445.572C614.394 444.216 611.531 443.538 608.291 443.538C604.674 443.538 601.51 444.367 598.797 446.024C596.16 447.682 594.088 450.018 592.581 453.032C591.074 455.97 590.321 459.436 590.321 463.43C590.321 467.724 591.112 471.454 592.694 474.619C594.352 477.783 596.612 480.232 599.475 481.965C602.414 483.698 605.767 484.565 609.534 484.565C616.24 484.565 621.891 482.191 626.487 477.444L633.382 484.339C630.443 487.578 626.864 490.103 622.645 491.911C618.425 493.644 613.716 494.51 608.517 494.51C602.339 494.51 596.951 493.23 592.355 490.668C587.759 488.106 584.18 484.565 581.618 480.044C579.056 475.448 577.775 470.136 577.775 464.108C577.775 458.08 579.056 452.806 581.618 448.285C584.18 443.689 587.759 440.11 592.355 437.548C596.951 434.986 602.225 433.667 608.178 433.592C615.261 433.592 620.949 435.061 625.244 438C629.539 440.863 632.591 444.932 634.399 450.206C636.207 455.48 636.848 461.734 636.32 468.968H588.286V459.7H625.018ZM685.924 445.346C681.629 445.12 677.9 445.874 674.735 447.607C671.646 449.264 669.235 451.6 667.502 454.614C665.844 457.628 665.015 461.094 665.015 465.012L661.399 464.56C661.399 457.854 662.378 452.203 664.337 447.607C666.296 443.01 669.122 439.544 672.814 437.209C676.506 434.798 680.876 433.592 685.924 433.592V445.346ZM652.131 434.044H665.128V494.058H652.131V434.044ZM698.871 434.044H711.756V494.058H698.871V434.044ZM705.313 409.292C707.499 409.292 709.307 410.008 710.738 411.44C712.17 412.871 712.886 414.68 712.886 416.865C712.886 418.975 712.17 420.783 710.738 422.29C709.307 423.721 707.499 424.437 705.313 424.437C703.204 424.437 701.395 423.721 699.888 422.29C698.457 420.783 697.741 418.975 697.741 416.865C697.741 414.68 698.457 412.871 699.888 411.44C701.395 410.008 703.204 409.292 705.313 409.292ZM777.78 460.152C777.78 455.48 776.499 451.826 773.938 449.189C771.376 446.476 767.834 445.12 763.314 445.12C757.964 445.196 753.745 447.079 750.655 450.771C747.641 454.463 746.134 459.059 746.134 464.56H742.518C742.518 457.1 743.573 451.11 745.682 446.589C747.792 442.069 750.768 438.791 754.611 436.757C758.529 434.647 763.125 433.592 768.4 433.592C773.071 433.592 777.065 434.534 780.38 436.418C783.77 438.301 786.332 440.976 788.065 444.442C789.874 447.833 790.778 451.939 790.778 456.761V494.058H777.78V460.152ZM733.25 434.044H746.247V494.058H733.25V434.044ZM864.703 488.068C864.703 493.87 863.423 498.881 860.861 503.1C858.299 507.32 854.682 510.559 850.011 512.82C845.339 515.156 839.839 516.324 833.51 516.324C828.838 516.324 824.43 515.608 820.286 514.176C816.142 512.82 812.224 510.899 808.532 508.412L814.07 499.483C816.933 501.593 819.872 503.213 822.886 504.343C825.899 505.549 829.252 506.152 832.944 506.152C836.787 506.152 840.102 505.398 842.89 503.891C845.754 502.46 847.939 500.425 849.446 497.788C851.028 495.151 851.819 492.024 851.819 488.407V434.044H864.703V488.068ZM831.475 433.592C836.75 433.517 841.233 434.647 844.925 436.983C848.692 439.243 851.555 442.521 853.514 446.815C855.473 451.11 856.415 456.272 856.34 462.299C856.415 468.327 855.473 473.526 853.514 477.896C851.631 482.191 848.843 485.506 845.151 487.842C841.534 490.103 837.126 491.233 831.927 491.233C826.502 491.233 821.755 490.027 817.687 487.616C813.618 485.13 810.453 481.701 808.193 477.331C805.932 472.961 804.802 467.913 804.802 462.186C804.802 456.535 805.895 451.6 808.08 447.381C810.34 443.086 813.467 439.733 817.461 437.322C821.529 434.835 826.201 433.592 831.475 433.592ZM834.527 443.538C831.136 443.538 828.122 444.367 825.485 446.024C822.848 447.607 820.776 449.829 819.269 452.693C817.837 455.556 817.084 458.833 817.008 462.525C817.084 466.217 817.837 469.495 819.269 472.358C820.776 475.221 822.81 477.482 825.372 479.14C828.009 480.722 831.061 481.513 834.527 481.513C837.917 481.513 840.894 480.722 843.455 479.14C846.093 477.482 848.127 475.221 849.559 472.358C851.066 469.495 851.819 466.217 851.819 462.525C851.819 458.758 851.066 455.48 849.559 452.693C848.127 449.829 846.093 447.607 843.455 446.024C840.894 444.367 837.917 443.538 834.527 443.538ZM909.141 414.943H972.546V426.359H947.455V494.058H934.119V426.359H909.141V414.943ZM1014.93 445.346C1010.64 445.12 1006.91 445.874 1003.74 447.607C1000.65 449.264 998.241 451.6 996.508 454.614C994.851 457.628 994.022 461.094 994.022 465.012L990.405 464.56C990.405 457.854 991.385 452.203 993.344 447.607C995.303 443.01 998.128 439.544 1001.82 437.209C1005.51 434.798 1009.88 433.592 1014.93 433.592V445.346ZM981.137 434.044H994.135V494.058H981.137V434.044ZM1038.95 467.95C1038.95 472.622 1040.2 476.314 1042.68 479.027C1045.17 481.664 1048.6 482.982 1052.97 482.982C1058.17 482.832 1062.2 480.91 1065.06 477.218C1068 473.526 1069.47 468.968 1069.47 463.543H1072.97C1072.97 470.927 1071.96 476.879 1069.92 481.4C1067.89 485.921 1064.99 489.236 1061.22 491.346C1057.53 493.38 1053.12 494.435 1048 494.51C1043.4 494.51 1039.44 493.569 1036.13 491.685C1032.89 489.801 1030.36 487.126 1028.56 483.66C1026.82 480.194 1025.96 476.088 1025.96 471.341V434.044H1038.95V467.95ZM1069.47 434.044H1082.47V494.058H1069.47V434.044ZM1138.22 448.624C1135.59 447.042 1132.68 445.798 1129.52 444.894C1126.43 443.915 1123.57 443.425 1120.93 443.425C1118.37 443.425 1116.26 443.915 1114.6 444.894C1112.94 445.874 1112.11 447.494 1112.11 449.754C1112.11 451.638 1112.87 453.145 1114.38 454.275C1115.96 455.33 1117.95 456.234 1120.37 456.987C1122.78 457.741 1125.34 458.532 1128.05 459.361C1130.76 460.19 1133.33 461.282 1135.74 462.638C1138.22 463.919 1140.22 465.69 1141.73 467.95C1143.23 470.211 1143.99 473.187 1143.99 476.879C1143.99 480.948 1142.89 484.301 1140.71 486.938C1138.6 489.5 1135.77 491.421 1132.23 492.702C1128.77 493.908 1125 494.51 1120.93 494.51C1116.56 494.51 1112.19 493.795 1107.82 492.363C1103.45 490.931 1099.76 488.859 1096.74 486.147L1101.38 477.331C1104.01 479.667 1107.22 481.513 1110.98 482.869C1114.75 484.15 1118.26 484.791 1121.5 484.791C1123.38 484.791 1125.04 484.565 1126.47 484.112C1127.98 483.585 1129.14 482.832 1129.97 481.852C1130.88 480.873 1131.33 479.592 1131.33 478.009C1131.33 475.9 1130.57 474.242 1129.07 473.036C1127.56 471.831 1125.6 470.851 1123.19 470.098C1120.78 469.269 1118.22 468.478 1115.51 467.724C1112.79 466.896 1110.23 465.841 1107.82 464.56C1105.48 463.279 1103.56 461.546 1102.06 459.361C1100.55 457.176 1099.8 454.275 1099.8 450.658C1099.8 446.589 1100.85 443.312 1102.96 440.825C1105.07 438.264 1107.78 436.418 1111.1 435.287C1114.49 434.082 1118.1 433.479 1121.95 433.479C1125.71 433.479 1129.48 434.006 1133.25 435.061C1137.02 436.116 1140.26 437.585 1142.97 439.469L1138.22 448.624ZM1174.58 475.071C1174.58 478.311 1175.15 480.533 1176.28 481.739C1177.41 482.869 1178.99 483.434 1181.03 483.434C1182.38 483.434 1183.78 483.208 1185.21 482.756C1186.72 482.304 1188.34 481.626 1190.07 480.722L1193.35 490.103C1191.01 491.534 1188.6 492.664 1186.11 493.493C1183.63 494.247 1181.1 494.623 1178.54 494.623C1175.53 494.623 1172.74 494.058 1170.18 492.928C1167.61 491.723 1165.54 489.839 1163.96 487.277C1162.45 484.715 1161.7 481.4 1161.7 477.331V419.803H1174.58V475.071ZM1153.22 436.191H1192.33V445.459H1153.22V436.191ZM1231.75 414.943H1295.15V426.359H1270.06V494.058H1256.72V426.359H1231.75V414.943ZM1347.3 460.152C1347.3 455.48 1346.01 451.826 1343.45 449.189C1340.89 446.476 1337.35 445.12 1332.83 445.12C1327.48 445.196 1323.26 447.079 1320.17 450.771C1317.16 454.463 1315.65 459.059 1315.65 464.56H1312.03C1312.03 457.1 1313.09 451.11 1315.2 446.589C1317.31 442.069 1320.28 438.791 1324.13 436.757C1328.04 434.647 1332.64 433.592 1337.91 433.592C1342.59 433.592 1346.58 434.534 1349.89 436.418C1353.29 438.301 1355.85 440.976 1357.58 444.442C1359.39 447.833 1360.29 451.939 1360.29 456.761V494.058H1347.3V460.152ZM1302.65 410.197H1315.65V494.058H1302.65V410.197ZM1405.72 433.592C1411.9 433.592 1417.32 434.873 1422 437.435C1426.74 439.997 1430.43 443.576 1433.07 448.172C1435.71 452.693 1437.03 457.967 1437.03 463.995C1437.03 470.023 1435.71 475.335 1433.07 479.931C1430.43 484.527 1426.74 488.106 1422 490.668C1417.32 493.23 1411.9 494.51 1405.72 494.51C1399.54 494.51 1394.08 493.23 1389.33 490.668C1384.59 488.106 1380.89 484.527 1378.26 479.931C1375.62 475.335 1374.3 470.023 1374.3 463.995C1374.3 457.967 1375.62 452.693 1378.26 448.172C1380.89 443.576 1384.59 439.997 1389.33 437.435C1394.08 434.873 1399.54 433.592 1405.72 433.592ZM1405.72 444.103C1402.1 444.103 1398.9 444.969 1396.11 446.702C1393.33 448.36 1391.14 450.696 1389.56 453.71C1388.05 456.724 1387.3 460.19 1387.3 464.108C1387.3 468.101 1388.05 471.605 1389.56 474.619C1391.14 477.633 1393.33 480.006 1396.11 481.739C1398.9 483.397 1402.1 484.226 1405.72 484.226C1409.34 484.226 1412.5 483.397 1415.21 481.739C1418 480.006 1420.15 477.633 1421.66 474.619C1423.24 471.605 1424.03 468.101 1424.03 464.108C1424.03 460.19 1423.24 456.724 1421.66 453.71C1420.15 450.696 1418 448.36 1415.21 446.702C1412.5 444.969 1409.34 444.103 1405.72 444.103ZM1463.93 467.95C1463.93 472.622 1465.17 476.314 1467.66 479.027C1470.14 481.664 1473.57 482.982 1477.94 482.982C1483.14 482.832 1487.17 480.91 1490.03 477.218C1492.97 473.526 1494.44 468.968 1494.44 463.543H1497.95C1497.95 470.927 1496.93 476.879 1494.89 481.4C1492.86 485.921 1489.96 489.236 1486.19 491.346C1482.5 493.38 1478.09 494.435 1472.97 494.51C1468.37 494.51 1464.42 493.569 1461.1 491.685C1457.86 489.801 1455.34 487.126 1453.53 483.66C1451.8 480.194 1450.93 476.088 1450.93 471.341V434.044H1463.93V467.95ZM1494.44 434.044H1507.44V494.058H1494.44V434.044ZM1583.2 488.068C1583.2 493.87 1581.92 498.881 1579.36 503.1C1576.8 507.32 1573.18 510.559 1568.51 512.82C1563.84 515.156 1558.34 516.324 1552.01 516.324C1547.33 516.324 1542.93 515.608 1538.78 514.176C1534.64 512.82 1530.72 510.899 1527.03 508.412L1532.57 499.483C1535.43 501.593 1538.37 503.213 1541.38 504.343C1544.4 505.549 1547.75 506.152 1551.44 506.152C1555.28 506.152 1558.6 505.398 1561.39 503.891C1564.25 502.46 1566.44 500.425 1567.94 497.788C1569.52 495.151 1570.32 492.024 1570.32 488.407V434.044H1583.2V488.068ZM1549.97 433.592C1555.25 433.517 1559.73 434.647 1563.42 436.983C1567.19 439.243 1570.05 442.521 1572.01 446.815C1573.97 451.11 1574.91 456.272 1574.84 462.299C1574.91 468.327 1573.97 473.526 1572.01 477.896C1570.13 482.191 1567.34 485.506 1563.65 487.842C1560.03 490.103 1555.62 491.233 1550.42 491.233C1545 491.233 1540.25 490.027 1536.18 487.616C1532.11 485.13 1528.95 481.701 1526.69 477.331C1524.43 472.961 1523.3 467.913 1523.3 462.186C1523.3 456.535 1524.39 451.6 1526.58 447.381C1528.84 443.086 1531.96 439.733 1535.96 437.322C1540.03 434.835 1544.7 433.592 1549.97 433.592ZM1553.02 443.538C1549.63 443.538 1546.62 444.367 1543.98 446.024C1541.34 447.607 1539.27 449.829 1537.77 452.693C1536.33 455.556 1535.58 458.833 1535.51 462.525C1535.58 466.217 1536.33 469.495 1537.77 472.358C1539.27 475.221 1541.31 477.482 1543.87 479.14C1546.51 480.722 1549.56 481.513 1553.02 481.513C1556.41 481.513 1559.39 480.722 1561.95 479.14C1564.59 477.482 1566.62 475.221 1568.06 472.358C1569.56 469.495 1570.32 466.217 1570.32 462.525C1570.32 458.758 1569.56 455.48 1568.06 452.693C1566.62 449.829 1564.59 447.607 1561.95 446.024C1559.39 444.367 1556.41 443.538 1553.02 443.538ZM1648.71 460.152C1648.71 455.48 1647.43 451.826 1644.87 449.189C1642.31 446.476 1638.77 445.12 1634.25 445.12C1628.9 445.196 1624.68 447.079 1621.59 450.771C1618.57 454.463 1617.07 459.059 1617.07 464.56H1613.45C1613.45 457.1 1614.51 451.11 1616.61 446.589C1618.72 442.069 1621.7 438.791 1625.54 436.757C1629.46 434.647 1634.06 433.592 1639.33 433.592C1644 433.592 1648 434.534 1651.31 436.418C1654.7 438.301 1657.26 440.976 1659 444.442C1660.81 447.833 1661.71 451.939 1661.71 456.761V494.058H1648.71V460.152ZM1604.07 410.197H1617.07V494.058H1604.07V410.197ZM1746.42 414.943C1756.36 414.943 1764.05 417.317 1769.47 422.064C1774.97 426.735 1777.72 433.328 1777.72 441.843C1777.72 450.734 1774.97 457.666 1769.47 462.638C1764.05 467.536 1756.36 469.985 1746.42 469.985H1722.34L1728.22 464.108V494.058H1714.88V414.943H1746.42ZM1745.85 458.57C1751.96 458.57 1756.66 457.251 1759.98 454.614C1763.3 451.901 1764.95 447.757 1764.95 442.182C1764.95 436.832 1763.3 432.876 1759.98 430.314C1756.66 427.677 1751.96 426.359 1745.85 426.359H1722.34L1728.22 420.482V464.447L1722.34 458.57H1745.85ZM1826.19 445.346C1821.9 445.12 1818.17 445.874 1815 447.607C1811.92 449.264 1809.5 451.6 1807.77 454.614C1806.11 457.628 1805.28 461.094 1805.28 465.012L1801.67 464.56C1801.67 457.854 1802.65 452.203 1804.61 447.607C1806.57 443.01 1809.39 439.544 1813.08 437.209C1816.77 434.798 1821.15 433.592 1826.19 433.592V445.346ZM1792.4 434.044H1805.4V494.058H1792.4V434.044ZM1839.14 434.044H1852.02V494.058H1839.14V434.044ZM1845.58 409.292C1847.77 409.292 1849.58 410.008 1851.01 411.44C1852.44 412.871 1853.16 414.68 1853.16 416.865C1853.16 418.975 1852.44 420.783 1851.01 422.29C1849.58 423.721 1847.77 424.437 1845.58 424.437C1843.47 424.437 1841.66 423.721 1840.16 422.29C1838.73 420.783 1838.01 418.975 1838.01 416.865C1838.01 414.68 1838.73 412.871 1840.16 411.44C1841.66 410.008 1843.47 409.292 1845.58 409.292ZM1864.03 434.044H1877.59L1894.32 482.078L1910.82 434.044H1923.81L1900.76 494.058H1887.31L1864.03 434.044ZM1953.17 467.272C1948.95 467.272 1945.82 467.913 1943.79 469.194C1941.75 470.475 1940.74 472.584 1940.74 475.523C1940.74 478.311 1941.75 480.533 1943.79 482.191C1945.9 483.849 1948.76 484.678 1952.38 484.678C1955.62 484.678 1958.52 484.112 1961.08 482.982C1963.64 481.852 1965.68 480.345 1967.18 478.461C1968.69 476.502 1969.48 474.317 1969.56 471.906L1972.04 482.869C1970.16 486.787 1967.3 489.726 1963.46 491.685C1959.61 493.644 1955.02 494.623 1949.67 494.623C1945.37 494.623 1941.64 493.795 1938.48 492.137C1935.31 490.479 1932.86 488.257 1931.13 485.469C1929.4 482.606 1928.53 479.441 1928.53 475.975C1928.53 470.55 1930.49 466.217 1934.41 462.978C1938.4 459.738 1944.02 458.08 1951.25 458.005H1971.14V467.272H1953.17ZM1969.45 455.97C1969.45 452.052 1968.24 449.001 1965.83 446.815C1963.42 444.63 1959.84 443.538 1955.09 443.538C1952.23 443.538 1949.29 444.065 1946.28 445.12C1943.34 446.175 1940.36 447.72 1937.35 449.754L1932.04 441.39C1934.82 439.657 1937.46 438.226 1939.95 437.096C1942.43 435.965 1945.07 435.099 1947.86 434.496C1950.72 433.893 1954.07 433.592 1957.92 433.592C1965.68 433.592 1971.63 435.476 1975.77 439.243C1979.99 442.935 1982.14 448.059 1982.22 454.614L1982.33 494.058H1969.56L1969.45 455.97ZM2044.37 451.223C2042.26 449.038 2039.77 447.343 2036.91 446.137C2034.05 444.932 2030.81 444.329 2027.19 444.329C2023.73 444.329 2020.64 445.158 2017.92 446.815C2015.21 448.473 2013.1 450.809 2011.59 453.823C2010.09 456.761 2009.33 460.19 2009.33 464.108C2009.33 468.026 2010.09 471.492 2011.59 474.506C2013.1 477.444 2015.21 479.78 2017.92 481.513C2020.64 483.171 2023.73 483.999 2027.19 483.999C2030.96 483.999 2034.35 483.397 2037.36 482.191C2040.38 480.91 2042.9 479.064 2044.94 476.653L2052.17 483.773C2049.46 487.164 2045.92 489.801 2041.55 491.685C2037.25 493.569 2032.28 494.51 2026.63 494.51C2020.67 494.51 2015.4 493.23 2010.8 490.668C2006.28 488.106 2002.74 484.565 2000.18 480.044C1997.62 475.448 1996.34 470.136 1996.34 464.108C1996.34 458.08 1997.62 452.806 2000.18 448.285C2002.74 443.689 2006.28 440.11 2010.8 437.548C2015.4 434.911 2020.67 433.592 2026.63 433.592C2032.05 433.592 2036.84 434.421 2040.98 436.078C2045.2 437.661 2048.7 439.921 2051.49 442.86L2044.37 451.223ZM2091.67 502.535C2089.78 507.131 2087.18 510.597 2083.87 512.933C2080.55 515.344 2076.63 516.55 2072.11 516.55C2069.4 516.55 2066.91 516.135 2064.65 515.306C2062.47 514.478 2060.32 513.234 2058.21 511.577L2063.75 501.97C2066.46 503.929 2069.06 504.908 2071.55 504.908C2073.51 504.908 2075.28 504.343 2076.86 503.213C2078.44 502.083 2079.72 500.35 2080.7 498.014L2082.74 493.267L2057.87 434.044H2071.32L2089.29 480.383L2106.02 434.044H2119.02L2091.67 502.535Z" fill="#1F3557"/>
<path d="M424.502 337V76.7637H505.532C524.753 76.7637 541.838 79.2762 556.787 84.3013C571.863 89.2008 583.734 97.4922 592.403 109.175C601.071 120.733 605.405 136.499 605.405 156.474C605.405 175.695 601.071 191.524 592.403 203.961C583.86 216.272 572.177 225.38 557.353 231.285C542.529 237.189 525.758 240.142 507.039 240.142H468.786V337H424.502ZM468.786 204.715H503.082C542.403 204.715 562.064 188.635 562.064 156.474C562.064 140.017 556.913 128.585 546.612 122.178C536.436 115.645 521.423 112.379 501.574 112.379H468.786V204.715Z" fill="#1F3557"/>
<path d="M662.872 337V76.7637H749.743C767.708 76.7637 783.851 79.1506 798.172 83.9244C812.619 88.6983 824.051 96.6756 832.468 107.856C840.885 119.037 845.094 134.175 845.094 153.271C845.094 171.738 840.885 186.939 832.468 198.873C824.051 210.808 812.619 219.664 798.172 225.443C783.851 231.222 767.708 234.111 749.743 234.111H707.155V337H662.872ZM707.155 198.873H745.032C763.122 198.873 777.004 195.104 786.677 187.567C796.476 179.903 801.376 168.471 801.376 153.271C801.376 138.07 796.476 127.454 786.677 121.424C777.004 115.394 763.122 112.379 745.032 112.379H707.155V198.873ZM805.144 337L741.263 222.051L773.863 196.047L854.516 337H805.144Z" fill="#1F3557"/>
<path d="M904.633 337V76.7637H948.917V337H904.633Z" fill="#1F3557"/>
<path d="M1069.13 337L989.424 76.7637H1036.16L1071.96 209.237C1075.98 224.061 1079.75 238.194 1083.27 251.636C1086.79 264.953 1090.81 279.023 1095.33 293.847H1096.84C1101.36 279.023 1105.25 264.953 1108.52 251.636C1111.78 238.194 1115.62 224.061 1120.01 209.237L1158.27 76.7637H1203.68L1121.14 337H1069.13Z" fill="#1F3557"/>
<path d="M1432.06 337H1385.14L1364.04 265.204H1275.85L1254.74 337H1209.52L1294.88 76.7637H1346.51L1432.06 337ZM1295.63 197.366L1285.83 230.531H1354.24L1344.44 197.366C1340.29 183.547 1336.27 169.414 1332.38 154.966C1328.48 140.394 1324.59 125.884 1320.69 111.437H1319C1315.48 126.009 1311.71 140.519 1307.69 154.966C1303.67 169.414 1299.65 183.547 1295.63 197.366Z" fill="#1F3557"/>
<path d="M1569.24 341.711C1549.52 341.711 1532.31 337.817 1517.61 330.028C1502.91 322.239 1491.48 309.739 1483.31 292.528C1475.27 275.192 1471.25 252.327 1471.25 223.936V76.7637H1515.35V227.139C1515.35 246.235 1517.61 261.373 1522.13 272.553C1526.78 283.609 1533.12 291.523 1541.16 296.297C1549.2 300.945 1558.56 303.269 1569.24 303.269C1579.92 303.269 1589.4 300.945 1597.69 296.297C1605.99 291.523 1612.52 283.609 1617.29 272.553C1622.07 261.373 1624.45 246.235 1624.45 227.139V76.7637H1666.85V223.936C1666.85 252.327 1662.83 275.192 1654.79 292.528C1646.75 309.739 1635.38 322.239 1620.68 330.028C1606.11 337.817 1588.96 341.711 1569.24 341.711Z" fill="#1F3557"/>
<path d="M1740.15 337V76.7637H1784.43V299.877H1893.54V337H1740.15Z" fill="#1F3557"/>
<path d="M1999.25 337V113.886H1923.68V76.7637H2119.09V113.886H2043.53V337H1999.25Z" fill="#1F3557"/>
<path d="M143.053 207.635H302.937C312.071 207.635 319.476 215.04 319.477 224.175V284.82C319.477 312.224 297.261 334.439 269.857 334.439H176.133C148.729 334.439 126.514 312.224 126.514 284.82V224.175C126.514 215.04 133.918 207.636 143.053 207.635Z" stroke="#1F3557" stroke-width="11.0265"/>
<path d="M238.63 75.339C277.357 76.3214 308.45 108.025 308.45 146.989V158.016H297.423V146.989C297.423 113.496 270.271 86.344 236.778 86.344H214.725C182.279 86.344 155.785 111.824 154.16 143.867L154.079 146.989V202.122H143.053V146.989C143.053 107.406 175.142 75.3175 214.725 75.3175H236.778L238.63 75.339Z" fill="#1F3557"/>
<rect x="220.238" y="246.228" width="11.0265" height="49.6191" fill="#1F3557"/>
</svg>
